<?xml version="1.0" encoding="iso-8859-1"?>
<!-- Generator: Adobe Illustrator 19.0.0, SVG Export Plug-In . SVG Version: 6.00 Build 0)  -->
<svg version="1.1" id="Capa_1" xmlns="http://www.w3.org/2000/svg" xmlns:xlink="http://www.w3.org/1999/xlink" x="0px" y="0px"
	 viewBox="0 0 54.999 54.999" style="enable-background:new 0 0 54.999 54.999;" xml:space="preserve">
<g>
	<g>
		<path d="M52.832,20.05c0.056-0.084,0.102-0.177,0.131-0.278c0.121-0.432-0.059-0.891-0.44-1.124L44,13.429V8.5
			c0-0.553-0.447-1-1-1h-4v-4c0-0.553-0.447-1-1-1H21c-0.553,0-1,0.447-1,1v4h-1c-0.553,0-1,0.447-1,1v4h-5.2
			c-0.185,0-0.365,0.051-0.523,0.148l-9.8,6c-0.382,0.233-0.561,0.692-0.44,1.124c0.029,0.101,0.075,0.194,0.131,0.278L0.021,30.295
			c-0.061,0.295,0.013,0.602,0.202,0.836C0.414,31.364,0.699,31.5,1,31.5h2v20c0,0.553,0.447,1,1,1h47c0.553,0,1-0.447,1-1v-20h2
			c0.301,0,0.586-0.136,0.776-0.369c0.189-0.234,0.264-0.541,0.202-0.836L52.832,20.05z M40,15.5H21h-1v-1h20V15.5z M22,17.5h18v1
			H22C22,18.5,22,17.5,22,17.5z M42,16.5v-1.95l6.451,3.95H42L42,16.5L42,16.5z M22,4.5h15v3H22C22,7.5,22,4.5,22,4.5z M20,9.5h1h17
			h4v3h-1H20C20,12.5,20,9.5,20,9.5z M13.082,14.5H18v2c0,0.553,0.447,1,1,1h1v1H6.548L13.082,14.5z M50,50.5H5v-19h45V50.5z
			 M51,29.5H4H2.231l1.886-9H21h20h9.883l1.886,9H51z"/>
		<path d="M41,42.399V44.5h-1v2h4v-2h-1v-2.101c2.279-0.465,4-2.485,4-4.899c0-0.553-0.447-1-1-1h-8c-0.553,0-1,0.447-1,1
			C37,39.914,38.72,41.934,41,42.399z M44.829,38.5c-0.413,1.164-1.525,2-2.829,2s-2.416-0.836-2.829-2H44.829z"/>
	</g>
</g>
</svg>
